<?xml version="1.0" encoding="UTF-8"?>
<svg id="Layer_1" xmlns="http://www.w3.org/2000/svg" version="1.1" viewBox="0 0 24 24">
  <!-- Generator: Adobe Illustrator 29.4.0, SVG Export Plug-In . SVG Version: 2.1.0 Build 152)  -->
  <defs>
    <style>
      .st0 {
        fill: #dd1438;
      }
    </style>
  </defs>
  <path class="st0" d="M9.6,13.9c-.3.3-.5.7-.5,1.2,0,.2,0,.5.1.7,0,.2.2.5.4.6.2.2.4.3.6.4.2,0,.3.1.5.1,0-.2,0-.3,0-.5l-1-2.7Z"/>
  <path class="st0" d="M9.1,13.3h0c-.3.3-.5.5-.7.9-.2.3-.3.6-.3,1,0,.3,0,.7.1,1,.1.3.3.6.5.8.2.2.5.4.7.6.2,0,.9.3,1.1.3,0,.1-.1.2-.2.3,0,.2-.2.3-.3.5-.1.1-.2.2-.4.3,0,0-.2,0-.2,0-.5-.2-.9-.5-1.3-.9-.4-.4-.6-.8-.8-1.3-.2-.5-.3-1-.3-1.5,0-.5.1-1,.3-1.5.2-.5.5-.9.8-1.2.2-.2.4-.3.6-.5l.4,1.3Z"/>
  <path class="st0" d="M15,10.7h0c.3-.3.5-.5.7-.9.2-.3.3-.6.3-1,0-.3,0-.7-.1-1-.1-.3-.3-.6-.5-.8-.2-.2-.5-.4-.7-.6-.2,0-.9-.3-1.1-.3,0-.1.1-.2.2-.3,0-.2.2-.3.3-.5.1-.1.2-.2.4-.3,0,0,.2,0,.2,0,.5.2.9.5,1.3.9.4.4.6.8.8,1.3.2.5.3,1,.3,1.5,0,.5-.1,1-.3,1.5-.2.5-.5.9-.8,1.2-.2.2-.4.3-.6.5l-.4-1.3Z"/>
  <path class="st0" d="M14.8,8.2c0-.2-.2-.5-.4-.6-.2-.2-.4-.3-.6-.4-.2,0-.3-.1-.5-.1,0,.2,0,.3,0,.5l1,2.7c.3-.3.5-.8.5-1.2,0-.2,0-.5-.1-.7Z"/>
  <path class="st0" d="M12,2C6.5,2,2,6.5,2,12s4.5,10,10,10,10-4.5,10-10S17.5,2,12,2ZM17.7,10.9c-.2.6-.6,1.2-1.1,1.6-.3.3-.7.6-1.1.9.2.5.2,1,.2,1.5,0,2.7-2.2,4.9-5,4.9h0c-.6,0-1.2-.1-1.7-.3-.6-.2-1.2-.6-1.6-1-.5-.5-.8-1-1.1-1.6-.3-.6-.4-1.2-.4-1.9,0-.7.1-1.3.3-1.9.2-.6.6-1.2,1.1-1.6.3-.3.6-.6,1-.8h0c-.2-.7-.3-1.5-.2-2.2.4-2.7,2.9-4.6,5.5-4.2.4,0,.9.1,1.3.3.6.2,1.2.6,1.6,1,.5.5.8,1,1.1,1.6.3.6.4,1.2.4,1.9,0,.7-.1,1.3-.3,1.9Z"/>
</svg>