<?xml version="1.0" encoding="UTF-8"?>
<svg id="Layer_1" data-name="Layer 1" xmlns="http://www.w3.org/2000/svg" viewBox="0 0 1545.65 2000">
  <defs>
    <style>
      .cls-1 {
        fill: #fff;
      }

      .cls-1, .cls-2 {
        stroke-width: 0px;
      }

      .cls-2 {
        fill: #dd1438;
      }
    </style>
  </defs>
  <path class="cls-2" d="m1544.19,771.37c0,426.59-346.24,771.37-771.37,771.37S0,1197.95,0,771.37,346.24,0,771.37,0s772.83,346.24,772.83,771.37"/>
  <path class="cls-1" d="m1214.03,400.29c-18.99-46.75-49.67-89.12-84.73-122.72-36.52-35.06-80.35-61.36-125.64-80.35-30.68-11.69-61.36-20.45-93.5-23.37-115.41-16.07-236.67,18.99-324.32,106.65-102.26,102.26-137.33,249.82-92.04,388.6v1.46h0c-27.76,17.53-54.05,37.98-77.43,62.82-35.06,36.52-64.28,80.35-81.81,127.1-18.99,48.21-26.3,96.42-26.3,147.55s10.23,100.8,30.68,146.09c18.99,46.75,49.67,89.12,84.73,122.72,36.52,35.06,80.35,61.36,125.64,80.35,45.29,18.99,94.96,26.3,144.63,26.3h-20.45c103.73,5.84,210.37-32.14,289.26-111.03,102.26-102.26,137.33-249.82,93.5-385.68,30.68-17.53,58.44-39.44,81.81-65.74,35.06-36.52,64.28-80.35,81.81-127.1,18.99-48.21,26.3-96.42,26.3-147.55,0-49.67-11.69-100.8-32.14-146.09m-333.09,27.76c-2.92-11.69-4.38-24.84-4.38-36.52,13.15,2.92,27.76,5.84,40.91,11.69,18.99,7.3,35.06,20.45,46.75,35.06s23.37,30.68,29.22,49.67c5.84,18.99,8.77,36.52,8.77,55.51-2.92,35.06-17.53,68.66-42.37,93.5l-78.89-208.91Zm90.58,238.13c2.92-2.92,4.38-4.38,7.3-7.3,16.07-16.07,26.3-35.06,35.06-55.51,8.77-20.45,10.23-43.83,10.23-64.28,0-23.37-5.84-42.37-14.61-61.36-8.77-18.99-23.37-35.06-36.52-49.67-14.61-13.15-32.14-24.84-51.13-30.68-13.15-4.38-27.76-7.3-42.37-7.3,0-24.84,7.3-48.21,17.53-68.66,16.07,2.92,33.6,8.77,48.21,16.07,29.22,13.15,51.13,30.68,71.59,51.13,18.99,23.37,35.06,46.75,45.29,74.51,10.23,26.3,14.61,55.51,14.61,84.73s-5.84,58.44-18.99,81.81c-10.23,26.3-26.3,49.67-46.75,67.2-7.3,5.84-13.15,11.69-21.91,16.07l-17.53-46.75Zm27.76,73.05c10.23-7.3,20.45-16.07,30.68-26.3,20.45-23.37,39.44-51.13,49.67-80.35,13.15-30.68,16.07-62.82,16.07-92.04,0-30.68-7.3-61.36-20.45-90.58-11.69-26.3-30.68-54.05-52.59-74.51-23.37-20.45-46.75-36.52-75.97-46.75-16.07-5.84-33.6-8.77-49.67-11.69,7.3-13.15,16.07-24.84,26.3-36.52,8.77-8.77,17.53-16.07,27.76-21.91,7.3,2.92,14.61,5.84,21.91,8.77,35.06,14.61,67.2,36.52,94.96,65.74,26.3,26.3,46.75,62.82,61.36,96.42,14.61,36.52,20.45,75.97,20.45,112.49-1.46,42.37-10.23,78.89-24.84,113.95-14.61,32.14-36.52,62.82-64.28,90.58-14.61,14.61-29.22,26.3-45.29,36.52l-16.07-43.83Zm-401.75,553.69c-5.84-2.92-11.69-4.38-17.53-7.3-35.06-14.61-67.2-36.52-94.96-65.74-26.3-26.3-46.75-62.82-61.36-96.42-14.61-36.52-20.45-75.97-20.45-112.49,1.46-39.44,10.23-75.97,24.84-111.03,14.61-32.14,36.52-62.82,64.28-90.58,13.15-13.15,27.76-24.84,42.37-33.6l16.07,43.83c-8.77,7.3-18.99,14.61-26.3,23.37-20.45,23.37-39.44,51.13-49.67,80.35-13.15,30.68-16.07,62.82-16.07,92.04,0,30.68,7.3,61.36,20.45,90.58,11.69,26.3,30.68,54.05,52.59,74.51,23.37,20.45,46.75,36.52,75.97,46.75,14.61,5.84,29.22,8.77,45.29,11.69-7.3,13.15-16.07,24.84-26.3,35.06-8.77,5.84-18.99,13.15-29.22,18.99m11.69-73.05c-29.22-13.15-51.13-30.68-71.59-51.13-18.99-23.37-35.06-46.75-45.29-74.51-10.23-26.3-14.61-55.52-14.61-84.73s5.84-58.44,18.99-81.81c10.23-26.3,26.3-49.67,46.75-67.2,5.84-4.38,11.69-10.23,17.53-14.61l17.53,46.75-4.38,4.38c-16.07,16.07-26.3,35.06-35.06,55.52-8.77,20.45-10.23,43.83-10.23,64.28,0,23.37,5.84,42.37,14.61,61.36,8.77,18.99,23.37,35.06,36.52,49.67,14.61,13.15,32.14,24.84,51.13,30.68,11.69,4.38,26.3,5.84,39.44,7.3-1.46,24.84-7.3,48.21-18.99,68.66-13.15-4.38-27.76-8.77-42.37-14.61m59.9-93.5c2.92,11.69,2.92,24.84,2.92,36.52-13.15-2.92-24.84-5.84-36.52-11.69-18.99-7.3-35.06-20.45-46.75-35.06-11.69-14.61-23.37-30.68-29.22-49.67-7.3-18.99-8.77-36.52-8.77-55.52,1.46-33.6,16.07-67.2,39.44-90.58l78.89,205.99Zm-236.67,144.63c-35.06-35.06-59.9-75.97-78.89-121.26-16.07-42.37-24.84-92.04-24.84-140.25,2.92-46.75,13.15-94.96,30.68-137.33,18.99-43.83,46.75-81.81,80.35-115.41,20.45-20.45,42.37-36.52,67.2-51.13l13.15,33.6c-18.99,13.15-37.98,26.3-52.59,43.83-29.22,30.68-51.13,65.74-65.74,105.19s-20.45,80.35-20.45,121.26c2.92,40.91,10.23,81.81,26.3,118.33,16.07,36.52,40.91,71.59,70.12,97.88,29.22,26.3,62.82,49.67,100.8,64.28,5.84,1.46,10.23,4.38,16.07,5.84-24.84,14.61-51.13,21.91-80.35,23.37-10.23,0-20.45-1.46-30.68-2.92-18.99-14.61-35.06-29.22-51.13-45.29m761.14-588.75c-18.99,43.83-46.75,81.81-80.35,115.41-20.45,20.45-45.29,39.44-71.59,54.05l-11.69-32.14c20.45-13.15,40.91-27.76,56.98-46.75,29.22-30.68,51.13-65.74,65.74-105.19,14.61-39.44,20.45-80.35,20.45-121.26-2.92-40.91-10.23-81.81-26.3-118.33-16.07-36.52-40.91-71.59-70.12-97.88-29.22-26.3-62.82-49.67-100.8-64.28-7.3-2.92-14.61-4.38-20.45-7.3,35.06-20.45,75.97-26.3,115.41-18.99,18.99,13.15,36.52,27.76,51.13,45.29,35.06,35.06,59.9,75.97,78.89,121.26,16.07,42.37,24.84,92.04,24.84,140.25-4.38,45.29-14.61,93.5-32.14,135.87"/>
  <path class="cls-1" d="m52.59,1989.77c-21.91-5.84-39.44-14.61-52.59-24.84l23.37-51.13c13.15,8.77,27.76,17.53,45.29,21.91,17.53,5.84,35.06,8.77,52.59,8.77,18.99,0,33.6-2.92,43.83-8.77,8.77-5.84,14.61-13.15,14.61-23.37,0-7.3-2.92-13.15-8.77-17.53-5.84-4.38-13.15-8.77-21.91-11.69-8.77-2.92-20.45-5.84-35.06-8.77-23.37-5.84-40.91-10.23-55.51-16.07-14.61-5.84-26.3-14.61-36.52-26.3-10.23-11.69-16.07-27.76-16.07-48.21,0-17.53,4.38-33.6,14.61-46.75,8.77-14.61,23.37-24.84,42.37-33.6,18.99-8.77,42.37-11.69,68.66-11.69,18.99,0,37.98,2.92,55.51,7.3s33.6,11.69,48.21,18.99l-21.91,52.59c-27.76-16.07-55.51-23.37-81.81-23.37-18.99,0-33.6,2.92-42.37,8.77-8.77,5.84-13.15,14.61-13.15,24.84s5.84,17.53,16.07,23.37c10.23,4.38,26.3,10.23,48.21,14.61,23.37,5.84,40.91,10.23,55.51,16.07,14.61,5.84,26.3,14.61,36.52,24.84,10.23,11.69,16.07,27.76,16.07,46.75,0,17.53-4.38,32.14-14.61,46.75-10.23,14.61-23.37,24.84-42.37,33.6-18.99,8.77-42.37,11.69-68.66,11.69-24.84,0-48.21-2.92-70.12-8.77"/>
  <path class="cls-1" d="m328.71,1963.48c-23.37-23.37-35.06-56.98-35.06-100.8v-166.54h68.66v163.62c0,52.59,21.91,80.35,65.74,80.35,21.91,0,37.98-5.84,49.67-18.99,11.69-13.15,17.53-33.6,17.53-59.9v-163.62h68.66v166.54c0,43.83-11.69,77.43-35.06,100.8-23.37,23.37-56.98,35.06-99.34,35.06-43.83-1.46-77.43-13.15-100.8-36.52"/>
  <path class="cls-1" d="m812.27,1709.28c18.99,8.77,35.06,21.91,45.29,37.98,10.23,16.07,16.07,35.06,16.07,56.98s-5.84,40.91-16.07,56.98c-10.23,16.07-24.84,29.22-45.29,37.98-18.99,8.77-42.37,13.15-68.66,13.15h-59.9v81.81h-68.66v-296.57h128.56c26.3-1.46,49.67,2.92,68.66,11.69m-24.84,132.94c10.23-8.77,16.07-21.91,16.07-37.98s-5.84-29.22-16.07-37.98c-10.23-8.77-26.3-13.15-46.75-13.15h-55.51v103.73h55.51c18.99-1.46,35.06-5.84,46.75-14.61"/>
  <path class="cls-1" d="m1111.76,1994.16l-56.98-83.27h-62.82v83.27h-68.66v-296.57h128.56c26.3,0,49.67,4.38,68.66,13.15,18.99,8.77,33.6,21.91,45.29,37.98,10.23,16.07,16.07,35.06,16.07,56.98s-5.84,40.91-16.07,56.98c-10.23,16.07-26.3,27.76-45.29,36.52l67.2,94.96h-75.97Zm-17.53-227.9c-10.23-8.77-26.3-13.15-46.75-13.15h-55.52v103.73h55.52c20.45,0,36.52-4.38,46.75-13.15,10.23-8.77,16.07-21.91,16.07-37.98,0-17.53-5.84-30.68-16.07-39.44"/>
  <path class="cls-1" d="m1444.85,1929.88h-137.33l-26.3,64.28h-70.12l132.94-296.57h68.66l132.94,296.57h-71.59l-29.22-64.28Zm-21.91-52.59l-46.75-113.95-46.75,113.95h93.5Z"/>
</svg>